<?xml version="1.0" standalone="no"?>
<!DOCTYPE svg PUBLIC "-//W3C//DTD SVG 20010904//EN"
 "http://www.w3.org/TR/2001/REC-SVG-20010904/DTD/svg10.dtd">
<svg version="1.0" xmlns="http://www.w3.org/2000/svg"
 width="412.000000pt" height="72.000000pt" viewBox="0 0 412.000000 72.000000"
 preserveAspectRatio="xMidYMid meet">
<metadata>
Created by potrace 1.13, written by Peter Selinger 2001-2015
</metadata>
<g transform="translate(0.000000,72.000000) scale(0.100000,-0.100000)"
fill="#FFF" stroke="none">
<path d="M1620 365 l0 -345 64 0 65 0 3 160 c3 150 4 161 26 182 15 16 34 23
62 23 28 0 47 -7 62 -23 22 -21 23 -32 26 -182 l3 -160 66 0 65 0 -4 178 c-3
156 -5 182 -24 217 -41 80 -156 110 -244 65 l-40 -20 0 125 0 125 -65 0 -65 0
0 -345z"/>
<path d="M3982 582 l3 -129 -27 20 c-39 29 -135 35 -193 12 -79 -30 -145 -134
-145 -230 0 -53 29 -133 62 -171 46 -52 96 -74 169 -74 58 0 119 22 119 42 0
4 5 8 10 8 6 0 10 -9 10 -20 0 -18 7 -20 60 -20 l60 0 0 345 0 345 -66 0 -65
0 3 -128z m-43 -220 c38 -28 56 -93 41 -147 -7 -24 -23 -53 -35 -65 -32 -30
-95 -37 -133 -14 -41 24 -57 57 -57 120 0 111 100 169 184 106z"/>
<path d="M260 696 c0 -2 50 -132 111 -288 61 -155 120 -307 131 -335 l19 -53
70 0 c38 0 69 3 69 6 0 4 -59 157 -132 340 l-131 334 -69 0 c-37 0 -68 -2 -68
-4z"/>
<path d="M1328 578 c-6 -57 -32 -88 -74 -88 -22 0 -24 -4 -24 -55 l0 -55 39 0
39 0 4 -138 c2 -112 6 -143 21 -165 27 -42 75 -67 129 -67 73 0 78 5 78 66 0
53 -1 54 -25 48 -16 -4 -34 0 -50 10 -24 16 -25 20 -25 131 l0 115 50 0 50 0
0 55 0 55 -50 0 -50 0 0 70 0 70 -54 0 -53 0 -5 -52z"/>
<path d="M2350 501 c-129 -27 -210 -137 -197 -271 8 -92 54 -162 132 -202 61
-32 166 -30 231 3 136 70 174 256 77 385 -46 62 -160 102 -243 85z m100 -124
c61 -31 88 -123 55 -187 -47 -91 -167 -94 -210 -4 -55 116 49 245 155 191z"/>
<path d="M3280 500 c-178 -35 -253 -269 -132 -410 52 -62 103 -84 189 -84 62
1 79 5 120 30 30 18 57 46 71 72 l23 42 -23 9 c-60 22 -86 23 -98 2 -13 -26
-61 -51 -95 -51 -53 0 -115 50 -115 92 0 17 14 18 164 18 188 0 179 -5 165 95
-5 39 -17 72 -36 99 -46 66 -147 103 -233 86z m121 -129 c53 -53 43 -61 -76
-61 -119 0 -130 9 -74 61 44 41 108 41 150 0z"/>
<path d="M2976 489 c-32 -5 -58 -17 -77 -35 l-29 -28 0 32 0 32 -60 0 -60 0 0
-235 0 -235 65 0 65 0 0 133 c0 158 12 189 81 207 23 6 50 9 60 7 17 -5 19 1
19 58 0 35 -3 66 -7 68 -5 2 -30 0 -57 -4z"/>
<path d="M712 313 c3 -202 13 -235 77 -279 51 -35 153 -35 205 1 34 23 36 23
36 5 0 -18 7 -20 60 -20 l60 0 0 235 0 235 -64 0 -65 0 -3 -160 c-3 -179 -9
-195 -79 -206 -29 -5 -41 -1 -65 19 l-29 25 -3 161 -3 161 -65 0 -66 0 4 -177z"/>
<path d="M35 145 c-30 -30 -32 -64 -4 -99 26 -33 79 -36 109 -6 30 30 27 83
-6 109 -35 28 -69 26 -99 -4z"/>
</g>
</svg>
