<?xml version="1.0" encoding="UTF-8" standalone="no"?>
<svg width="119px" height="122px" viewBox="0 0 119 122" version="1.1" xmlns="http://www.w3.org/2000/svg" xmlns:xlink="http://www.w3.org/1999/xlink" style="background: #FFFFFF;">
    <!-- Generator: Sketch 43.2 (39069) - http://www.bohemiancoding.com/sketch -->
    <title>Group</title>
    <desc>Created with Sketch.</desc>
    <defs></defs>
    <g id="Page-1" stroke="none" stroke-width="1" fill="none" fill-rule="evenodd" stroke-linecap="square">
        <g id="Group" stroke="#066D99" stroke-width="2">
            <path d="M52.5,1.5 L1.5,120.5" id="Line"></path>
            <path d="M52.5,2.5 L21.5,120.5" id="Line"></path>
            <path d="M2.5,121 L20.5,121" id="Line"></path>
            <path d="M5.5,114 L22.5,114" id="Line"></path>
            <path d="M8.5,107 L24.5,107" id="Line"></path>
            <path d="M11.5,100 L26.5,100" id="Line"></path>
            <path d="M14.5,93 L28.5,93" id="Line"></path>
            <path d="M17.5,86 L30.5,86" id="Line"></path>
            <path d="M20.5,79 L31.5,79" id="Line"></path>
            <path d="M23.5,72 L33.5,72" id="Line"></path>
            <path d="M26.5,65 L35.5,65" id="Line"></path>
            <path d="M29.5,58 L37.5,58" id="Line"></path>
            <path d="M35.5,44 L40.5,44" id="Line"></path>
            <path d="M32.5,51 L39.5,51" id="Line"></path>
            <path d="M37.5,37 L42.5,37" id="Line"></path>
            <path d="M40.5,30 L44.5,30" id="Line"></path>
            <path d="M44.5,22 L46.5,22" id="Line"></path>
            <path d="M47.5,15 L48.5,15" id="Line"></path>
            <path d="M117.5,1.5 L66.5,120.5" id="Line"></path>
            <path d="M117.5,2.5 L86.5,120.5" id="Line"></path>
            <path d="M67.5,121 L85.5,121" id="Line"></path>
            <path d="M70.5,114 L87.5,114" id="Line"></path>
            <path d="M73.5,107 L89.5,107" id="Line"></path>
            <path d="M76.5,100 L91.5,100" id="Line"></path>
            <path d="M79.5,93 L93.5,93" id="Line"></path>
            <path d="M82.5,86 L95.5,86" id="Line"></path>
            <path d="M85.5,79 L96.5,79" id="Line"></path>
            <path d="M88.5,72 L98.5,72" id="Line"></path>
            <path d="M91.5,65 L100.5,65" id="Line"></path>
            <path d="M94.5,58 L102.5,58" id="Line"></path>
            <path d="M100.5,44 L105.5,44" id="Line"></path>
            <path d="M97.5,51 L104.5,51" id="Line"></path>
            <path d="M102.5,37 L107.5,37" id="Line"></path>
            <path d="M105.5,30 L109.5,30" id="Line"></path>
            <path d="M109.5,22 L111.5,22" id="Line"></path>
            <path d="M112.5,15 L113.5,15" id="Line"></path>
            <path d="M95,50.9999992 L41,50.9999992" id="Line"></path>
            <path d="M45,51 L42,65" id="Line"></path>
            <path d="M89,64.9999992 L35,64.9999992" id="Line"></path>
            <path d="M53,51 L50,65" id="Line"></path>
            <path d="M60,51 L57,65" id="Line"></path>
            <path d="M67,51 L64,65" id="Line"></path>
            <path d="M74,51 L71,65" id="Line"></path>
            <path d="M81,51 L78,65" id="Line"></path>
            <path d="M88,51 L85,65" id="Line"></path>
        </g>
    </g>
</svg>